# xmcd CD database file
#
# Track frame offsets:
#	151
#	18004
#	37233
#	55896
#	84583
#	106840
#	132537
#	157507
#
# Disc length: 2433 seconds
#
# Revision: 0
# Processed by: cddbd v1.5.2PL0 Copyright (c) Steve Scherf et al.
# Submitted via: CDex 1.70beta2
#
DISCID=59097f08
DTITLE=Nan Citty and Blues Voice - Keep On Loving
DYEAR=1900
DGENRE=Blues
TTITLE0=Make Your Way
TTITLE1=Take a Little Trip
TTITLE2=Keep on Loving
TTITLE3=Serve Somebody
TTITLE4=Lost in Love
TTITLE5=Just Won't Burn
TTITLE6=Whenever You Are Ready
TTITLE7=Wander This World
EXTD=
EXTT0=
EXTT1=
EXTT2=
EXTT3=
EXTT4=
EXTT5=
EXTT6=
EXTT7=
PLAYORDER=
